<svg width="113" height="276" viewBox="0 0 113 276" fill="none" xmlns="http://www.w3.org/2000/svg">
<path d="M44.9213 27.8184L45.5065 38.2897C49.0352 31.0853 50.4981 28.5651 50.4981 28.5651L50.89 35.0352C53.2774 27.8919 55.0671 26.3236 55.0671 26.3236L55.4336 33.5534C60.0651 23.9232 64.0436 21.4167 64.0436 21.4167L67.8086 34.6549L67.5567 24.8965L69.4317 32.0749C68.3314 42.11 63.5515 51.5514 56.3874 51.5514C49.3574 51.5514 44.6335 42.4583 43.4186 32.6348L44.9213 27.8184ZM37.7852 31.7051L39.0397 30.3919C39.9675 37.7467 41.3282 39.3333 41.3282 39.3333L41.4453 38.9583L42.0319 42.3047C37.2305 37.735 37.0189 34.0703 37.7852 31.7051ZM71.0606 38.3099L71.6817 40.6849C71.6817 40.6849 73.0853 33.4798 73.7461 29.9284C75.0853 31.9316 76.614 36.3535 70.3607 42.3047L71.0606 38.3099ZM3.84833 94.9251L5.41929 95.6849L21.8822 59.8581C22.071 59.4486 22.4414 59.1517 22.8828 59.0566L45.5111 54.2533L47.6426 51.7552C50.0612 54.0033 52.9811 55.3568 56.3874 55.3568C59.6537 55.3568 62.5117 54.0332 64.916 51.8236L67.0013 54.2682L89.5599 59.0566C90.002 59.1517 90.3718 59.4486 90.5619 59.8581L107.033 95.7064L108.652 94.9251C109.596 94.4681 109.994 93.3353 109.54 92.39L92.8164 57.5299C92.5632 57.0052 92.0853 56.623 91.515 56.4967L69.8197 51.6569C69.8047 51.6536 69.7891 51.6602 69.7741 51.6569L69.3008 51.1016L70.1309 49.2936L71.3314 50.9733L71.5716 47.0514L73.9727 48.5716L73.2233 42.0182C75.6836 39.2018 76.9037 36.3665 76.821 33.5684C76.7487 31.1432 75.6986 29.3483 74.8887 28.3132L80.7969 30.6849L75.8477 19.3633L83.1003 21.5202L76.2637 15.5202L81.8269 13.3366L74.3835 12.0749L75.6368 7.375L70.1797 8.625L71.7201 5.18164L68.1198 6.66471L67.334 2.67513L63.4349 5.48828L63.2474 0.979818L58.9382 3.91992L56.5026 0L53.6908 2.9401L52.0052 0.783203L48.8203 4.50846L45.2149 2.16146L44.1361 6.4681L38.3041 4.95508L39.1862 9.95508L32.4147 11.9102L37.2754 14.3652L27.2292 23.6667L35.9518 23.0397L32.864 36.862L35.5886 34.0065C35.6393 36.7819 36.9317 39.5918 39.4753 42.3802L38.767 48.5716L41.1686 47.0514L41.4082 50.9733L42.6088 49.2936L43.3555 50.9186L42.7259 51.6569C42.7103 51.6602 42.6947 51.6536 42.6791 51.6569L20.9851 56.4967C20.4154 56.623 19.9362 57.0052 19.6836 57.5299L2.96031 92.39C2.50718 93.3353 2.90367 94.4681 3.84833 94.9251ZM108.36 143.465C106.877 149.315 104.943 149.574 101.055 149.574C97.5052 149.574 96.2448 144.806 96.2448 140.723C96.2448 139.657 96.9851 138.465 97.8431 137.083C98.2286 136.464 98.6283 135.818 98.9981 135.135C99.3366 134.515 99.3002 133.758 98.9082 133.17C98.6836 132.833 98.515 132.513 98.3998 132.197L92.7533 103.968C92.7286 103.84 92.6882 103.714 92.6381 103.592L92.3099 102.825L101.051 98.6003C101.123 98.7481 101.188 98.8997 101.245 99.0547L106.877 128.998C106.892 129.083 106.913 129.165 106.94 129.247C107.027 129.507 107.075 129.771 107.113 130.035C107.119 130.077 107.142 130.185 107.15 130.225C108.263 135.498 109.225 140.051 108.36 143.465ZM88.002 194.732C88.0118 194.807 87.9851 194.876 87.9851 194.951H84.2233L86.3516 227.959H74.2559L67.5163 194.951H84.1986L79.1628 151.529L75.6993 136.91H79.6088L82.892 150.76C82.9082 150.832 82.9219 150.904 82.9297 150.979L88.002 194.732ZM38.2442 227.959H26.1452L28.2722 194.951H44.9838L38.2442 227.959ZM19.862 103.592C19.8106 103.714 19.7722 103.84 19.7461 103.968L14.0996 132.197C13.9837 132.512 13.8171 132.833 13.5892 133.173C13.1992 133.76 13.1647 134.515 13.5013 135.135C13.8718 135.818 14.2715 136.464 14.6569 137.083C15.5143 138.465 16.2546 139.657 16.2546 140.723C16.2546 144.806 14.9948 149.574 11.4453 149.574C7.55731 149.574 5.62242 149.315 4.14 143.465C3.27541 140.051 4.237 135.498 5.35028 130.225C5.35875 130.185 5.38088 130.077 5.38674 130.035C5.4245 129.771 5.47333 129.507 5.55927 129.247C5.58661 129.165 5.60809 129.083 5.62372 128.998L11.2552 99.0534C11.3119 98.8997 11.3763 98.7481 11.4486 98.6003L20.1901 102.827L19.862 103.592ZM110.878 129.49C110.807 128.995 110.715 128.574 110.593 128.18L104.956 98.2103C104.94 98.125 104.92 98.0397 104.892 97.9564C104.815 97.7285 104.717 97.5065 104.622 97.2852C104.619 97.2799 104.615 97.2767 104.613 97.2715L88.267 61.6999L66.7416 57.1315L66.5007 57.7201C64.1211 61.3001 60.3008 63.4336 56.252 63.4382C52.1992 63.4336 48.3789 61.3001 45.9987 57.7201L45.7539 57.1198L24.1765 61.6999L7.98895 96.9264L8.01435 96.9382C8.00328 96.9701 7.99286 96.998 7.98179 97.0286C7.83987 97.3314 7.71552 97.6419 7.60875 97.9564C7.58075 98.0397 7.55927 98.125 7.54234 98.2103L1.90627 128.18C1.78453 128.574 1.69338 128.988 1.62763 129.44C0.416037 135.176 -0.629536 140.13 0.452495 144.4C2.36526 151.947 5.79169 153.379 11.4453 153.379C16.6778 153.379 20.0586 148.411 20.0586 140.723C20.0586 138.572 18.9558 136.795 17.888 135.077C17.7162 134.798 17.5397 134.515 17.3653 134.227C17.515 133.919 17.64 133.61 17.7448 133.297C17.7689 133.223 17.7897 133.146 17.8047 133.07L23.4369 104.908L23.6185 104.483L25.1446 105.221C25.4831 105.385 25.8431 105.407 26.1934 105.363L26.2702 88.0319C26.2728 87.5098 26.6973 87.0853 27.2214 87.0853H27.2259C27.7507 87.0885 28.1745 87.515 28.1725 88.0417L28.0677 111.758C28.2084 116.676 28.3151 121.12 28.3789 124.223L26.4525 134.661C26.3503 135.218 26.4994 135.792 26.8607 136.225C27.222 136.66 27.7578 136.91 28.3229 136.91H28.6563L25.2702 151.197L20.1979 194.951H24.39C24.39 194.876 24.3627 194.807 24.3718 194.732L29.4453 150.979C29.4531 150.904 29.4662 150.832 29.4831 150.76L32.765 136.91H36.6752L33.2116 151.529L28.1758 194.951H24.4636L20.1543 261.781H28.0541C28.5801 261.781 29.0052 262.206 29.0052 262.732C29.0052 263.258 28.5801 263.683 28.0541 263.683H20.2097C16.1224 267.697 10.6127 275.168 10.6127 275.168H36.6146C36.6146 273.387 35.2266 267.445 34.375 263.964C34.6784 263.695 34.905 263.334 34.9909 262.91L48.8672 194.951H50.9512L56.1433 176.992L61.3347 194.951H63.6328L77.5085 262.91C77.5951 263.331 77.8229 263.688 78.1276 263.954C77.2761 267.432 75.8854 273.385 75.8854 275.168H101.887C101.887 275.168 96.377 267.697 92.2897 263.683H84.4453C83.92 263.683 83.4948 263.258 83.4948 262.732C83.4948 262.206 83.92 261.781 84.4453 261.781H92.3464L88.0365 194.951H92.0886L87.015 151.197L83.7565 136.91H84.1765C84.7435 136.91 85.2787 136.658 85.64 136.223C86.002 135.79 86.1517 135.217 86.0482 134.66L84.1348 124.35C84.2214 121.15 84.3269 117.632 84.4414 114.008L84.3269 88.0417C84.3249 87.515 84.7481 87.0885 85.2735 87.0853H85.2787C85.8015 87.0853 86.2266 87.5085 86.2299 88.0319L86.3067 105.382C86.3802 105.39 86.4532 105.411 86.5287 105.411C86.8067 105.411 87.0886 105.35 87.3549 105.221L88.8815 104.483L89.0632 104.908L94.6953 133.07C94.7103 133.146 94.7299 133.223 94.7552 133.297C94.8601 133.612 94.9851 133.92 95.1335 134.227C94.9603 134.515 94.7832 134.798 94.612 135.077C93.545 136.795 92.4414 138.572 92.4414 140.723C92.4414 148.411 95.8216 153.379 101.055 153.379C106.708 153.379 110.135 151.947 112.047 144.4C113.13 140.13 112.083 135.176 110.878 129.49Z" fill="white"/>
</svg>
